<svg width="12" height="58" viewBox="0 0 12 58" fill="none" xmlns="http://www.w3.org/2000/svg">
<path d="M3.04 8.9268L3.04 4.4868L1 3.6618L1 0.631796L11.5 5.2668L11.5 8.1918L0.999999 12.8418L1 9.7518L3.04 8.9268ZM5.23 8.0568L8.59 6.7068L5.23 5.3568L5.23 8.0568ZM6.475 21.7538C6.265 22.3538 5.935 22.8238 5.485 23.1638C5.045 23.5038 4.51 23.6738 3.88 23.6738C2.96 23.6738 2.25 23.3038 1.75 22.5638C1.25 21.8238 0.999999 20.7538 0.999999 19.3538L0.999999 13.6838L11.5 13.6838L11.5 19.0538C11.5 20.3938 11.25 21.4138 10.75 22.1138C10.26 22.8138 9.595 23.1638 8.755 23.1638C8.255 23.1638 7.805 23.0388 7.405 22.7888C7.015 22.5488 6.705 22.2038 6.475 21.7538ZM9.355 16.6238L7.33 16.6238L7.33 18.6638C7.33 19.6638 7.67 20.1638 8.35 20.1638C9.02 20.1638 9.355 19.6638 9.355 18.6638L9.355 16.6238ZM3.145 19.1138C3.145 20.1538 3.5 20.6738 4.21 20.6738C4.92 20.6738 5.275 20.1538 5.275 19.1138L5.275 16.6238L3.145 16.6238L3.145 19.1138ZM0.789999 30.5071C0.789999 29.3971 1.025 28.3971 1.495 27.5071C1.965 26.6271 2.615 25.9321 3.445 25.4221C4.275 24.9221 5.21 24.6721 6.25 24.6721C7.29 24.6721 8.225 24.9221 9.055 25.4221C9.885 25.9321 10.535 26.6271 11.005 27.5071C11.475 28.3971 11.71 29.3971 11.71 30.5071C11.71 31.6171 11.475 32.6121 11.005 33.4921C10.535 34.3821 9.885 35.0771 9.055 35.5771C8.225 36.0871 7.29 36.3421 6.25 36.3421C5.21 36.3421 4.275 36.0871 3.445 35.5771C2.615 35.0771 1.965 34.3821 1.495 33.4921C1.025 32.6121 0.789999 31.6171 0.789999 30.5071ZM3.25 30.5071C3.25 31.0371 3.375 31.5171 3.625 31.9471C3.875 32.3771 4.225 32.7171 4.675 32.9671C5.135 33.2171 5.66 33.3421 6.25 33.3421C6.84 33.3421 7.36 33.2171 7.81 32.9671C8.27 32.7171 8.625 32.3771 8.875 31.9471C9.125 31.5171 9.25 31.0371 9.25 30.5071C9.25 29.9771 9.125 29.4971 8.875 29.0671C8.625 28.6371 8.27 28.2971 7.81 28.0471C7.36 27.7971 6.84 27.6721 6.25 27.6721C5.66 27.6721 5.135 27.7971 4.675 28.0471C4.225 28.2971 3.875 28.6371 3.625 29.0671C3.375 29.4971 3.25 29.9771 3.25 30.5071ZM0.789998 42.7427C0.789998 41.1827 1.215 39.9677 2.065 39.0977C2.915 38.2377 4.12 37.8077 5.68 37.8077L11.5 37.8077L11.5 40.7777L5.77 40.7777C4.09 40.7777 3.25 41.4427 3.25 42.7727C3.25 44.0927 4.09 44.7527 5.77 44.7527L11.5 44.7527L11.5 47.6777L5.68 47.6777C4.12 47.6777 2.915 47.2427 2.065 46.3727C1.215 45.5127 0.789998 44.3027 0.789998 42.7427ZM9.145 51.7635L9.145 48.5385L11.5 48.5385L11.5 57.9435L9.145 57.9435L9.145 54.7335L0.999998 54.7335L0.999998 51.7635L9.145 51.7635Z" fill="white"/>
</svg>
