<svg width="12" height="78" viewBox="0 0 12 78" fill="none" xmlns="http://www.w3.org/2000/svg">
<path d="M0.79 6.82406C0.79 5.71406 1.025 4.71406 1.495 3.82406C1.965 2.94406 2.615 2.24906 3.445 1.73906C4.275 1.23906 5.21 0.989062 6.25 0.989062C7.29 0.989062 8.225 1.23906 9.055 1.73906C9.885 2.24906 10.535 2.94406 11.005 3.82406C11.475 4.71406 11.71 5.71406 11.71 6.82406C11.71 7.93406 11.475 8.92906 11.005 9.80906C10.535 10.6991 9.885 11.3941 9.055 11.8941C8.225 12.4041 7.29 12.6591 6.25 12.6591C5.21 12.6591 4.275 12.4041 3.445 11.8941C2.615 11.3941 1.965 10.6991 1.495 9.80906C1.025 8.92906 0.79 7.93406 0.79 6.82406ZM3.25 6.82406C3.25 7.35406 3.375 7.83406 3.625 8.26406C3.875 8.69406 4.225 9.03406 4.675 9.28406C5.135 9.53406 5.66 9.65906 6.25 9.65906C6.84 9.65906 7.36 9.53406 7.81 9.28406C8.27 9.03406 8.625 8.69406 8.875 8.26406C9.125 7.83406 9.25 7.35406 9.25 6.82406C9.25 6.29406 9.125 5.81406 8.875 5.38406C8.625 4.95406 8.27 4.61406 7.81 4.36406C7.36 4.11406 6.84 3.98906 6.25 3.98906C5.66 3.98906 5.135 4.11406 4.675 4.36406C4.225 4.61406 3.875 4.95406 3.625 5.38406C3.375 5.81406 3.25 6.29406 3.25 6.82406ZM11.5 14.2471L11.5 23.0221L9.205 23.0221L9.205 17.1721L7.51 17.1721L7.51 19.8871C7.51 21.1571 7.24 22.1321 6.7 22.8121C6.16 23.4921 5.385 23.8321 4.375 23.8321C3.315 23.8321 2.485 23.4521 1.885 22.6921C1.295 21.9321 0.999999 20.8671 0.999999 19.4971L0.999999 14.2471L11.5 14.2471ZM3.13 19.3021C3.13 19.8021 3.23 20.1821 3.43 20.4421C3.63 20.7021 3.915 20.8321 4.285 20.8321C5.025 20.8321 5.395 20.3221 5.395 19.3021L5.395 17.1721L3.13 17.1721L3.13 19.3021ZM0.789999 30.5252C0.789999 29.4152 1.025 28.4152 1.495 27.5252C1.965 26.6452 2.615 25.9502 3.445 25.4402C4.275 24.9402 5.21 24.6902 6.25 24.6902C7.29 24.6902 8.225 24.9402 9.055 25.4402C9.885 25.9502 10.535 26.6452 11.005 27.5252C11.475 28.4152 11.71 29.4152 11.71 30.5252C11.71 31.6352 11.475 32.6302 11.005 33.5102C10.535 34.4002 9.885 35.0952 9.055 35.5952C8.225 36.1052 7.29 36.3602 6.25 36.3602C5.21 36.3602 4.275 36.1052 3.445 35.5952C2.615 35.0952 1.965 34.4002 1.495 33.5102C1.025 32.6302 0.789999 31.6352 0.789999 30.5252ZM3.25 30.5252C3.25 31.0552 3.375 31.5352 3.625 31.9652C3.875 32.3952 4.225 32.7352 4.675 32.9852C5.135 33.2352 5.66 33.3602 6.25 33.3602C6.84 33.3602 7.36 33.2352 7.81 32.9852C8.27 32.7352 8.625 32.3952 8.875 31.9652C9.125 31.5352 9.25 31.0552 9.25 30.5252C9.25 29.9952 9.125 29.5152 8.875 29.0852C8.625 28.6552 8.27 28.3152 7.81 28.0652C7.36 27.8152 6.84 27.6902 6.25 27.6902C5.66 27.6902 5.135 27.8152 4.675 28.0652C4.225 28.3152 3.875 28.6552 3.625 29.0852C3.375 29.5152 3.25 29.9952 3.25 30.5252ZM0.999998 51.7785L6.565 51.7635L2.035 49.0635L2.035 47.7435L6.445 45.0435L0.999998 45.0435L0.999998 42.3135L11.5 42.3135L11.5 44.7585L5.44 48.4485L11.5 52.0485L11.5 54.4935L0.999998 54.5235L0.999998 51.7785ZM11.5 66.7468L0.999997 66.7468L0.999997 63.7768L5.095 63.7768L5.095 59.7268L0.999997 59.7268L0.999998 56.7568L11.5 56.7568L11.5 59.7268L7.555 59.7268L7.555 63.7768L11.5 63.7768L11.5 66.7468ZM3.295 77.4329L0.999997 77.4329L0.999997 69.0029L11.5 69.0029L11.5 77.2379L9.205 77.2379L9.205 71.9429L7.435 71.9429L7.435 76.6079L5.215 76.6079L5.215 71.9429L3.295 71.9429L3.295 77.4329Z" fill="white"/>
</svg>
