<svg width="12" height="86" viewBox="0 0 12 86" fill="none" xmlns="http://www.w3.org/2000/svg">
<path d="M0.79 5.82992C0.79 4.72992 1.02 3.73992 1.48 2.85992C1.95 1.98992 2.6 1.30492 3.43 0.804922C4.26 0.304921 5.2 0.0549215 6.25 0.0549216C7.3 0.0549216 8.24 0.304922 9.07 0.804922C9.9 1.30492 10.545 1.98992 11.005 2.85992C11.475 3.73992 11.71 4.72992 11.71 5.82992C11.71 6.78992 11.54 7.65492 11.2 8.42492C10.86 9.19492 10.37 9.83492 9.73 10.3449L8.02 8.45492C8.84 7.77492 9.25 6.94992 9.25 5.97992C9.25 5.40992 9.125 4.89992 8.875 4.44992C8.625 4.00992 8.27 3.66492 7.81 3.41492C7.36 3.17492 6.84 3.05492 6.25 3.05492C5.66 3.05492 5.135 3.17492 4.675 3.41492C4.225 3.66492 3.875 4.00992 3.625 4.44992C3.375 4.89992 3.25 5.40992 3.25 5.97992C3.25 6.94992 3.66 7.77492 4.48 8.45492L2.77 10.3449C2.13 9.83492 1.64 9.19492 1.3 8.42492C0.96 7.65492 0.79 6.78992 0.79 5.82992ZM0.789999 16.7444C0.789999 15.6344 1.025 14.6344 1.495 13.7444C1.965 12.8644 2.615 12.1694 3.445 11.6594C4.275 11.1594 5.21 10.9094 6.25 10.9094C7.29 10.9094 8.225 11.1594 9.055 11.6594C9.885 12.1694 10.535 12.8644 11.005 13.7444C11.475 14.6344 11.71 15.6344 11.71 16.7444C11.71 17.8544 11.475 18.8494 11.005 19.7294C10.535 20.6194 9.885 21.3144 9.055 21.8144C8.225 22.3244 7.29 22.5794 6.25 22.5794C5.21 22.5794 4.275 22.3244 3.445 21.8144C2.615 21.3144 1.965 20.6194 1.495 19.7294C1.025 18.8494 0.789999 17.8544 0.789999 16.7444ZM3.25 16.7444C3.25 17.2744 3.375 17.7544 3.625 18.1844C3.875 18.6144 4.225 18.9544 4.675 19.2044C5.135 19.4544 5.66 19.5794 6.25 19.5794C6.84 19.5794 7.36 19.4544 7.81 19.2044C8.27 18.9544 8.625 18.6144 8.875 18.1844C9.125 17.7544 9.25 17.2744 9.25 16.7444C9.25 16.2144 9.125 15.7344 8.875 15.3044C8.625 14.8744 8.27 14.5344 7.81 14.2844C7.36 14.0344 6.84 13.9094 6.25 13.9094C5.66 13.9094 5.135 14.0344 4.675 14.2844C4.225 14.5344 3.875 14.8744 3.625 15.3044C3.375 15.7344 3.25 16.2144 3.25 16.7444ZM11.5 34.125L0.999998 34.125L0.999999 31.68L6.595 27.045L0.999999 27.045L0.999999 24.135L11.5 24.135L11.5 26.58L5.905 31.215L11.5 31.215L11.5 34.125ZM9.145 38.4549L9.145 35.2299L11.5 35.2299L11.5 44.6349L9.145 44.6349L9.145 41.4249L0.999998 41.4249L0.999998 38.4549L9.145 38.4549ZM3.04 52.2491L3.04 47.8091L0.999998 46.9841L0.999998 43.9541L11.5 48.5891L11.5 51.5141L0.999998 56.1641L0.999998 53.0741L3.04 52.2491ZM5.23 51.3791L8.59 50.0291L5.23 48.6791L5.23 51.3791ZM0.789997 62.0946C0.789997 60.9946 1.02 60.0046 1.48 59.1246C1.95 58.2546 2.6 57.5696 3.43 57.0696C4.26 56.5696 5.2 56.3196 6.25 56.3196C7.3 56.3196 8.24 56.5696 9.07 57.0696C9.9 57.5696 10.545 58.2546 11.005 59.1246C11.475 60.0046 11.71 60.9946 11.71 62.0946C11.71 63.0546 11.54 63.9196 11.2 64.6896C10.86 65.4596 10.37 66.0996 9.73 66.6096L8.02 64.7196C8.84 64.0396 9.25 63.2146 9.25 62.2446C9.25 61.6746 9.125 61.1646 8.875 60.7146C8.625 60.2746 8.27 59.9296 7.81 59.6796C7.36 59.4396 6.84 59.3196 6.25 59.3196C5.66 59.3196 5.135 59.4396 4.675 59.6796C4.225 59.9296 3.875 60.2746 3.625 60.7146C3.375 61.1646 3.25 61.6746 3.25 62.2446C3.25 63.2146 3.66 64.0396 4.48 64.7196L2.77 66.6096C2.13 66.0996 1.64 65.4596 1.3 64.6896C0.959997 63.9196 0.789997 63.0546 0.789997 62.0946ZM9.145 70.0809L9.145 66.8559L11.5 66.8559L11.5 76.2609L9.145 76.2609L9.145 73.0509L0.999997 73.0509L0.999997 70.0809L9.145 70.0809ZM0.789996 81.0281C0.789996 80.1781 0.894996 79.3531 1.105 78.5531C1.315 77.7531 1.595 77.1031 1.945 76.6031L4.135 77.5781C3.825 78.0481 3.575 78.5931 3.385 79.2131C3.195 79.8331 3.1 80.4431 3.1 81.0431C3.1 82.1831 3.385 82.7531 3.955 82.7531C4.255 82.7531 4.475 82.5881 4.615 82.2581C4.765 81.9381 4.92 81.4181 5.08 80.6981C5.25 79.9081 5.43 79.2481 5.62 78.7181C5.82 78.1881 6.135 77.7331 6.565 77.3531C6.995 76.9731 7.575 76.7831 8.305 76.7831C8.945 76.7831 9.52 76.9581 10.03 77.3081C10.55 77.6581 10.96 78.1781 11.26 78.8681C11.56 79.5681 11.71 80.4231 11.71 81.4331C11.71 82.1231 11.63 82.8031 11.47 83.4731C11.32 84.1431 11.095 84.7331 10.795 85.2431L8.59 84.3281C9.13 83.3281 9.4 82.3581 9.4 81.4181C9.4 80.8281 9.31 80.3981 9.13 80.1281C8.96 79.8581 8.735 79.7231 8.455 79.7231C8.175 79.7231 7.965 79.8831 7.825 80.2031C7.685 80.5231 7.54 81.0381 7.39 81.7481C7.22 82.5481 7.035 83.2081 6.835 83.7281C6.645 84.2581 6.335 84.7131 5.905 85.0931C5.485 85.4831 4.91 85.6781 4.18 85.6781C3.55 85.6781 2.98 85.5031 2.47 85.1531C1.96 84.8031 1.55 84.2781 1.24 83.5781C0.939996 82.8781 0.789996 82.0281 0.789996 81.0281Z" fill="white"/>
</svg>
