<svg width="12" height="92" viewBox="0 0 12 92" fill="none" xmlns="http://www.w3.org/2000/svg">
<path d="M5.02 4.6493L5.02 3.2993L1 3.2993L1 0.344296L11.5 0.344297L11.5 3.2993L7.42 3.2993L7.42 4.7243L11.5 7.2293L11.5 10.3493L6.43 7.0643L1 10.3793L1 7.0343L5.02 4.6493ZM0.789999 16.4334C0.789999 15.3234 1.025 14.3234 1.495 13.4334C1.965 12.5534 2.615 11.8584 3.445 11.3484C4.275 10.8484 5.21 10.5984 6.25 10.5984C7.29 10.5984 8.225 10.8484 9.055 11.3484C9.885 11.8584 10.535 12.5534 11.005 13.4334C11.475 14.3234 11.71 15.3234 11.71 16.4334C11.71 17.5434 11.475 18.5384 11.005 19.4184C10.535 20.3084 9.885 21.0034 9.055 21.5034C8.225 22.0134 7.29 22.2684 6.25 22.2684C5.21 22.2684 4.275 22.0134 3.445 21.5034C2.615 21.0034 1.965 20.3084 1.495 19.4184C1.025 18.5384 0.789999 17.5434 0.789999 16.4334ZM3.25 16.4334C3.25 16.9634 3.375 17.4434 3.625 17.8734C3.875 18.3034 4.225 18.6434 4.675 18.8934C5.135 19.1434 5.66 19.2684 6.25 19.2684C6.84 19.2684 7.36 19.1434 7.81 18.8934C8.27 18.6434 8.625 18.3034 8.875 17.8734C9.125 17.4434 9.25 16.9634 9.25 16.4334C9.25 15.9034 9.125 15.4234 8.875 14.9934C8.625 14.5634 8.27 14.2234 7.81 13.9734C7.36 13.7234 6.84 13.5984 6.25 13.5984C5.66 13.5984 5.135 13.7234 4.675 13.9734C4.225 14.2234 3.875 14.5634 3.625 14.9934C3.375 15.4234 3.25 15.9034 3.25 16.4334ZM11.5 33.8464L0.999998 33.8464L0.999999 30.8764L5.095 30.8764L5.095 26.8264L0.999999 26.8264L0.999999 23.8564L11.5 23.8564L11.5 26.8264L7.555 26.8264L7.555 30.8764L11.5 30.8764L11.5 33.8464ZM9.145 44.5625L9.145 41.3525L0.999998 41.3525L0.999998 38.4275L9.145 38.4275L9.145 35.2025L11.5 35.2025L11.5 44.5625L9.145 44.5625ZM3.04 52.6493L3.04 48.2093L0.999998 47.3843L0.999998 44.3543L11.5 48.9893L11.5 51.9143L0.999997 56.5643L0.999998 53.4743L3.04 52.6493ZM5.23 51.7793L8.59 50.4293L5.23 49.0793L5.23 51.7793ZM5.02 62.0126L5.02 60.6626L0.999997 60.6626L0.999997 57.7076L11.5 57.7076L11.5 60.6626L7.42 60.6626L7.42 62.0876L11.5 64.5926L11.5 67.7126L6.43 64.4276L0.999997 67.7426L0.999997 64.3976L5.02 62.0126ZM9.145 77.0235L9.145 73.8135L0.999997 73.8135L0.999997 70.8885L9.145 70.8885L9.145 67.6635L11.5 67.6635L11.5 77.0235L9.145 77.0235ZM8.155 83.7476C8.155 85.0376 7.865 86.0326 7.285 86.7326C6.715 87.4326 5.865 87.7826 4.735 87.7826C3.525 87.7826 2.6 87.3926 1.96 86.6126C1.32 85.8326 0.999996 84.7476 0.999996 83.3576L0.999997 78.3926L11.5 78.3926L11.5 81.3176L8.155 81.3176L8.155 83.7476ZM3.13 83.1626C3.13 83.6626 3.265 84.0576 3.535 84.3476C3.805 84.6476 4.185 84.7976 4.675 84.7976C5.585 84.7976 6.04 84.2526 6.04 83.1626L6.04 81.3176L3.13 81.3176L3.13 83.1626ZM11.5 88.9376L11.5 91.8626L0.999996 91.8626L0.999996 88.9376L11.5 88.9376Z" fill="white"/>
</svg>
