<svg width="24" height="25" viewBox="0 0 24 25" fill="none" xmlns="http://www.w3.org/2000/svg">
<path fill-rule="evenodd" clip-rule="evenodd" d="M12 0.658997C5.37 0.658997 0 6.16482 0 12.9625C0 18.4068 3.435 23.0053 8.205 24.6355C8.805 24.7431 9.03 24.374 9.03 24.0511C9.03 23.7589 9.015 22.79 9.015 21.7595C6 22.3286 5.22 21.006 4.98 20.3139C4.845 19.9602 4.26 18.8682 3.75 18.576C3.33 18.3453 2.73 17.7763 3.735 17.7609C4.68 17.7455 5.355 18.6529 5.58 19.022C6.66 20.8829 8.385 20.36 9.075 20.0371C9.18 19.2373 9.495 18.699 9.84 18.3915C7.17 18.0839 4.38 17.0227 4.38 12.3166C4.38 10.9786 4.845 9.87126 5.61 9.01001C5.49 8.70243 5.07 7.44132 5.73 5.74958C5.73 5.74958 6.735 5.42661 9.03 7.01069C9.99 6.73386 11.01 6.59545 12.03 6.59545C13.05 6.59545 14.07 6.73386 15.03 7.01069C17.325 5.41123 18.33 5.74958 18.33 5.74958C18.99 7.44132 18.57 8.70243 18.45 9.01001C19.215 9.87126 19.68 10.9632 19.68 12.3166C19.68 17.0381 16.875 18.0839 14.205 18.3915C14.64 18.7759 15.015 19.5142 15.015 20.6676C15.015 22.3132 15 23.6358 15 24.0511C15 24.374 15.225 24.7585 15.825 24.6355C20.565 23.0053 24 18.3915 24 12.9625C24 6.16482 18.63 0.658997 12 0.658997Z" fill="white"/>
</svg>
