<svg xmlns="http://www.w3.org/2000/svg" viewBox="0 0 14.24 14.24"><defs><style>.cls-1{fill:#fff;}</style></defs><g id="Layer_2" data-name="Layer 2"><g id="instagram"><path id="gate" class="cls-1" d="M7.12,0a7.12,7.12,0,1,0,7.12,7.12A7.12,7.12,0,0,0,7.12,0Zm4.93,9.5A2.55,2.55,0,0,1,9.5,12.05H4.73A2.55,2.55,0,0,1,2.19,9.5V4.73A2.54,2.54,0,0,1,4.73,2.19H9.5a2.55,2.55,0,0,1,2.55,2.54Z"/><path id="icon" class="cls-1" d="M7.12,6.36a.76.76,0,0,0-.76.76.75.75,0,0,0,.76.75.74.74,0,0,0,.75-.75A.75.75,0,0,0,7.12,6.36Z"/><path id="camera" class="cls-1" d="M9.5,3.8H4.73a.93.93,0,0,0-.93.93V9.5a.94.94,0,0,0,.93.94H9.5a.94.94,0,0,0,.94-.94V4.73A.94.94,0,0,0,9.5,3.8ZM7.12,9.16a2,2,0,1,1,2-2A2.05,2.05,0,0,1,7.12,9.16ZM9.31,5.42a.58.58,0,0,1-.59-.59.59.59,0,0,1,.59-.6.6.6,0,0,1,.6.6A.59.59,0,0,1,9.31,5.42Z"/></g></g></svg>