<svg xmlns="http://www.w3.org/2000/svg" viewBox="0 0 15.29 15.29"><defs><style>.cls-1{fill:#fff;}</style></defs><g id="Layer_2" data-name="Layer 2"><g id="inst"><path class="cls-1" d="M10.45,15.29H4.85A4.85,4.85,0,0,1,0,10.45V4.85A4.85,4.85,0,0,1,4.85,0h5.6a4.85,4.85,0,0,1,4.84,4.85v5.6A4.84,4.84,0,0,1,10.45,15.29ZM4.85,1.7A3.15,3.15,0,0,0,1.7,4.85v5.6A3.16,3.16,0,0,0,4.85,13.6h5.6a3.16,3.16,0,0,0,3.15-3.15V4.85A3.16,3.16,0,0,0,10.45,1.7Z"/><path class="cls-1" d="M7.65,10.85a3.21,3.21,0,1,1,3.2-3.2A3.21,3.21,0,0,1,7.65,10.85Zm0-5A1.79,1.79,0,1,0,9.44,7.65,1.79,1.79,0,0,0,7.65,5.86Z"/><circle id="flesh" class="cls-1" cx="11.01" cy="4.02" r="0.78"/></g></g></svg>