<svg xmlns="http://www.w3.org/2000/svg" viewBox="0 0 8 8"><defs><style>.cls-1{fill:#fff;}</style></defs><g id="Layer_2" data-name="Layer 2"><g id="Layer_2-2" data-name="Layer 2"><path class="cls-1" d="M4,0A4,4,0,1,0,8,4,4,4,0,0,0,4,0ZM2.78,6.28h-1V3h1ZM2.67,2.56a.54.54,0,0,1-.4.14.57.57,0,0,1-.41-.14.45.45,0,0,1-.15-.35.45.45,0,0,1,.15-.35.62.62,0,0,1,.41-.14.59.59,0,0,1,.4.14.46.46,0,0,1,0,.7ZM6.29,6.28h-1v-2a.5.5,0,0,0-.1-.36.42.42,0,0,0-.35-.12A.47.47,0,0,0,4.39,4V6.28h-1V3h.94l0,.38A1.09,1.09,0,0,1,5.28,3a.9.9,0,0,1,.75.3,1.37,1.37,0,0,1,.26.91Z"/></g></g></svg>
