<svg width="12" height="83" viewBox="0 0 12 83" fill="none" xmlns="http://www.w3.org/2000/svg">
<path d="M11.5 5.76406C11.5 6.71406 11.34 7.53906 11.02 8.23906C10.71 8.93906 10.26 9.47906 9.67 9.85906C9.09 10.2391 8.405 10.4291 7.615 10.4291C6.825 10.4291 6.14 10.2391 5.56 9.85906C4.98 9.47906 4.53 8.93906 4.21 8.23906C3.9 7.53906 3.745 6.71406 3.745 5.76406L3.745 3.93406L1 3.93406L1 0.964062L11.5 0.964062L11.5 5.76406ZM6.085 5.58406C6.085 6.19406 6.215 6.65406 6.475 6.96406C6.745 7.27406 7.125 7.42906 7.615 7.42906C8.105 7.42906 8.485 7.27406 8.755 6.96406C9.025 6.65406 9.16 6.19406 9.16 5.58406L9.16 3.93406L6.085 3.93406L6.085 5.58406ZM3.79 16.4671L3.79 14.8471L0.999999 14.8471L0.999999 11.8771L11.5 11.8771L11.5 16.6771C11.5 17.6271 11.34 18.4521 11.02 19.1521C10.71 19.8521 10.26 20.3921 9.67 20.7721C9.09 21.1521 8.405 21.3421 7.615 21.3421C6.855 21.3421 6.19 21.1621 5.62 20.8021C5.06 20.4521 4.62 19.9471 4.3 19.2871L0.999999 21.5521L0.999999 18.3721L3.79 16.4671ZM7.615 18.3421C8.105 18.3421 8.485 18.1871 8.755 17.8771C9.025 17.5671 9.16 17.1071 9.16 16.4971L9.16 14.8471L6.085 14.8471L6.085 16.4971C6.085 17.1071 6.215 17.5671 6.475 17.8771C6.745 18.1871 7.125 18.3421 7.615 18.3421ZM0.789999 28.2757C0.789999 27.1657 1.025 26.1657 1.495 25.2757C1.965 24.3957 2.615 23.7007 3.445 23.1907C4.275 22.6907 5.21 22.4407 6.25 22.4407C7.29 22.4407 8.225 22.6907 9.055 23.1907C9.885 23.7007 10.535 24.3957 11.005 25.2757C11.475 26.1657 11.71 27.1657 11.71 28.2757C11.71 29.3857 11.475 30.3807 11.005 31.2607C10.535 32.1507 9.885 32.8457 9.055 33.3457C8.225 33.8557 7.29 34.1107 6.25 34.1107C5.21 34.1107 4.275 33.8557 3.445 33.3457C2.615 32.8457 1.965 32.1507 1.495 31.2607C1.025 30.3807 0.789999 29.3857 0.789999 28.2757ZM3.25 28.2757C3.25 28.8057 3.375 29.2857 3.625 29.7157C3.875 30.1457 4.225 30.4857 4.675 30.7357C5.135 30.9857 5.66 31.1107 6.25 31.1107C6.84 31.1107 7.36 30.9857 7.81 30.7357C8.27 30.4857 8.625 30.1457 8.875 29.7157C9.125 29.2857 9.25 28.8057 9.25 28.2757C9.25 27.7457 9.125 27.2657 8.875 26.8357C8.625 26.4057 8.27 26.0657 7.81 25.8157C7.36 25.5657 6.84 25.4407 6.25 25.4407C5.66 25.4407 5.135 25.5657 4.675 25.8157C4.225 26.0657 3.875 26.4057 3.625 26.8357C3.375 27.2657 3.25 27.7457 3.25 28.2757ZM0.789998 37.7415C0.789998 36.9715 0.919998 36.2715 1.18 35.6415C1.45 35.0115 1.835 34.4965 2.335 34.0965L4.255 35.7165C3.525 36.2765 3.16 36.8815 3.16 37.5315C3.16 37.9615 3.29 38.2865 3.55 38.5065C3.81 38.7365 4.19 38.8515 4.69 38.8515L9.205 38.8515L9.205 35.2215L11.5 35.2215L11.5 41.7915L4.87 41.7915C3.51 41.7915 2.49 41.4465 1.81 40.7565C1.13 40.0765 0.789998 39.0715 0.789998 37.7415ZM3.295 52.2261L0.999998 52.2261L0.999998 43.7961L11.5 43.7961L11.5 52.0311L9.205 52.0311L9.205 46.7361L7.435 46.7361L7.435 51.4011L5.215 51.4011L5.215 46.7361L3.295 46.7361L3.295 52.2261ZM0.789997 59.0946C0.789997 57.9946 1.02 57.0046 1.48 56.1246C1.95 55.2546 2.6 54.5696 3.43 54.0696C4.26 53.5696 5.2 53.3196 6.25 53.3196C7.3 53.3196 8.24 53.5696 9.07 54.0696C9.9 54.5696 10.545 55.2546 11.005 56.1246C11.475 57.0046 11.71 57.9946 11.71 59.0946C11.71 60.0546 11.54 60.9196 11.2 61.6896C10.86 62.4596 10.37 63.0996 9.73 63.6096L8.02 61.7196C8.84 61.0396 9.25 60.2146 9.25 59.2446C9.25 58.6746 9.125 58.1646 8.875 57.7146C8.625 57.2746 8.27 56.9296 7.81 56.6796C7.36 56.4396 6.84 56.3196 6.25 56.3196C5.66 56.3196 5.135 56.4396 4.675 56.6796C4.225 56.9296 3.875 57.2746 3.625 57.7146C3.375 58.1646 3.25 58.6746 3.25 59.2446C3.25 60.2146 3.66 61.0396 4.48 61.7196L2.77 63.6096C2.13 63.0996 1.64 62.4596 1.3 61.6896C0.959997 60.9196 0.789997 60.0546 0.789997 59.0946ZM9.145 67.0809L9.145 63.8559L11.5 63.8559L11.5 73.2609L9.145 73.2609L9.145 70.0509L0.999997 70.0509L0.999997 67.0809L9.145 67.0809ZM0.789997 78.0281C0.789997 77.1781 0.894997 76.3531 1.105 75.5531C1.315 74.7531 1.595 74.1031 1.945 73.6031L4.135 74.5781C3.825 75.0481 3.575 75.5931 3.385 76.2131C3.195 76.8331 3.1 77.4431 3.1 78.0431C3.1 79.1831 3.385 79.7531 3.955 79.7531C4.255 79.7531 4.475 79.5881 4.615 79.2581C4.765 78.9381 4.92 78.4181 5.08 77.6981C5.25 76.9081 5.43 76.2481 5.62 75.7181C5.82 75.1881 6.135 74.7331 6.565 74.3531C6.995 73.9731 7.575 73.7831 8.305 73.7831C8.945 73.7831 9.52 73.9581 10.03 74.3081C10.55 74.6581 10.96 75.1781 11.26 75.8681C11.56 76.5681 11.71 77.4231 11.71 78.4331C11.71 79.1231 11.63 79.8031 11.47 80.4731C11.32 81.1431 11.095 81.7331 10.795 82.2431L8.59 81.3281C9.13 80.3281 9.4 79.3581 9.4 78.4181C9.4 77.8281 9.31 77.3981 9.13 77.1281C8.96 76.8581 8.735 76.7231 8.455 76.7231C8.175 76.7231 7.965 76.8831 7.825 77.2031C7.685 77.5231 7.54 78.0381 7.39 78.7481C7.22 79.5481 7.035 80.2081 6.835 80.7281C6.645 81.2581 6.335 81.7131 5.905 82.0931C5.485 82.4831 4.91 82.6781 4.18 82.6781C3.55 82.6781 2.98 82.5031 2.47 82.1531C1.96 81.8031 1.55 81.2781 1.24 80.5781C0.939996 79.8781 0.789996 79.0281 0.789997 78.0281Z" fill="white"/>
</svg>
