<svg width="12" height="80" viewBox="0 0 12 80" fill="none" xmlns="http://www.w3.org/2000/svg">
<path d="M11.5 9.86086L0.999999 9.86086L1 6.92086L9.145 6.92086L9.145 2.93086L1 2.93086L1 0.00585885L11.5 0.00585931L11.5 9.86086ZM11.5 16.9055C11.5 17.8555 11.34 18.6805 11.02 19.3805C10.71 20.0805 10.26 20.6205 9.67 21.0005C9.09 21.3805 8.405 21.5705 7.615 21.5705C6.825 21.5705 6.14 21.3805 5.56 21.0005C4.98 20.6205 4.53 20.0805 4.21 19.3805C3.9 18.6805 3.745 17.8555 3.745 16.9055L3.745 15.0755L0.999999 15.0755L0.999999 12.1055L11.5 12.1055L11.5 16.9055ZM6.085 16.7255C6.085 17.3355 6.215 17.7955 6.475 18.1055C6.745 18.4155 7.125 18.5705 7.615 18.5705C8.105 18.5705 8.485 18.4155 8.755 18.1055C9.025 17.7955 9.16 17.3355 9.16 16.7255L9.16 15.0755L6.085 15.0755L6.085 16.7255ZM0.789999 28.2225C0.789999 27.1125 1.025 26.1125 1.495 25.2225C1.965 24.3425 2.615 23.6475 3.445 23.1375C4.275 22.6375 5.21 22.3875 6.25 22.3875C7.29 22.3875 8.225 22.6375 9.055 23.1375C9.885 23.6475 10.535 24.3425 11.005 25.2225C11.475 26.1125 11.71 27.1125 11.71 28.2225C11.71 29.3325 11.475 30.3275 11.005 31.2075C10.535 32.0975 9.885 32.7925 9.055 33.2925C8.225 33.8025 7.29 34.0575 6.25 34.0575C5.21 34.0575 4.275 33.8025 3.445 33.2925C2.615 32.7925 1.965 32.0975 1.495 31.2075C1.025 30.3275 0.789999 29.3325 0.789999 28.2225ZM3.25 28.2225C3.25 28.7525 3.375 29.2325 3.625 29.6625C3.875 30.0925 4.225 30.4325 4.675 30.6825C5.135 30.9325 5.66 31.0575 6.25 31.0575C6.84 31.0575 7.36 30.9325 7.81 30.6825C8.27 30.4325 8.625 30.0925 8.875 29.6625C9.125 29.2325 9.25 28.7525 9.25 28.2225C9.25 27.6925 9.125 27.2125 8.875 26.7825C8.625 26.3525 8.27 26.0125 7.81 25.7625C7.36 25.5125 6.84 25.3875 6.25 25.3875C5.66 25.3875 5.135 25.5125 4.675 25.7625C4.225 26.0125 3.875 26.3525 3.625 26.7825C3.375 27.2125 3.25 27.6925 3.25 28.2225ZM3.295 44.0755L0.999998 44.0755L0.999998 35.6455L11.5 35.6455L11.5 43.8805L9.205 43.8805L9.205 38.5855L7.435 38.5855L7.435 43.2505L5.215 43.2505L5.215 38.5855L3.295 38.5855L3.295 44.0755ZM5.02 50.0126L5.02 48.6626L0.999998 48.6626L0.999998 45.7076L11.5 45.7076L11.5 48.6626L7.42 48.6626L7.42 50.0876L11.5 52.5926L11.5 55.7126L6.43 52.4276L0.999997 55.7426L0.999998 52.3976L5.02 50.0126ZM9.145 65.0235L9.145 61.8135L0.999997 61.8135L0.999997 58.8885L9.145 58.8885L9.145 55.6635L11.5 55.6635L11.5 65.0235L9.145 65.0235ZM8.155 71.7476C8.155 73.0376 7.865 74.0326 7.285 74.7326C6.715 75.4326 5.865 75.7826 4.735 75.7826C3.525 75.7826 2.6 75.3926 1.96 74.6126C1.32 73.8326 0.999997 72.7476 0.999997 71.3576L0.999997 66.3926L11.5 66.3926L11.5 69.3176L8.155 69.3176L8.155 71.7476ZM3.13 71.1626C3.13 71.6626 3.265 72.0576 3.535 72.3476C3.805 72.6476 4.185 72.7976 4.675 72.7976C5.585 72.7976 6.04 72.2526 6.04 71.1626L6.04 69.3176L3.13 69.3176L3.13 71.1626ZM11.5 76.9376L11.5 79.8626L0.999996 79.8626L0.999997 76.9376L11.5 76.9376Z" fill="white"/>
</svg>
